# xmcd CD database file
#
# Track frame offsets:
#	150
#	27969
#	51224
#	71484
#	88669
#	109872
#	133963
#	138767
#	194031
#
# Disc length: 3108 seconds
#
# Revision: 0
# Processed by: cddbd v1.5.2PL0 Copyright (c) Steve Scherf et al.
# Submitted via: CDex 1.51
#
DISCID=840c2209
DTITLE=Thomas Barth - Seven Worlds
DYEAR=2001
DGENRE=Jazz
TTITLE0=Friends
TTITLE1=Turquoise
TTITLE2=After the prayer
TTITLE3=Gentle souls
TTITLE4=I wish
TTITLE5=Stepping out
TTITLE6=Yelling in the street
TTITLE7=Manhattan suite
TTITLE8=Seven worlds
EXTD=YEAR: 2001
EXTT0=
EXTT1=
EXTT2=
EXTT3=
EXTT4=
EXTT5=
EXTT6=
EXTT7=
EXTT8=
PLAYORDER=
